<svg width="90" height="36" viewBox="0 0 90 36" xmlns="http://www.w3.org/2000/svg">

  <!-- Main body -->
  <path d="M4 24 
           Q10 12, 26 12 
           H62 
           Q74 12, 82 18 
           Q84 19, 82 21 
           Q74 26, 62 26 
           H20 
           Q10 26, 4 24 Z"
        fill="#1E88E5"/>

  <!-- Nose (darker for definition) -->
  <path d="M4 24 
           Q10 12, 18 13 
           Q14 18, 18 24 Z"
        fill="#0D47A1"/>

  <!-- Cockpit windshield (front window - FIXED) -->
  <path d="M18 15 
           Q22 13.5, 26 15 
           L24 18 
           Q21 17, 18 17 Z"
        fill="#BBDEFB"/>

  <!-- Passenger window band (aligned, not overlapping front) -->
  <rect x="28" y="14" width="36" height="4" rx="2" fill="#E3F2FD"/>

  <!-- Accent stripe -->
  <path d="M26 20 
           H60 
           Q68 20, 70 22 
           Q68 23, 60 23 
           H26 Z"
        fill="#64B5F6"/>

  <!-- Wheels -->
  <circle cx="32" cy="27" r="2.2" fill="#424242"/>
  <circle cx="60" cy="27" r="2.2" fill="#424242"/>

  <!-- Subtle shadow -->
  <ellipse cx="45" cy="29" rx="28" ry="2" fill="#BDBDBD" opacity="0.35"/>

</svg>
